<svg aria-hidden="true" style="position: absolute; width: 0; height: 0; overflow: hidden;" version="1.1" xmlns="http://www.w3.org/2000/svg" xmlns:xlink="http://www.w3.org/1999/xlink">
<defs>
<symbol id="icon-arrow" viewBox="0 0 82 32">
<path d="M81.414 17.414c0.781-0.781 0.781-2.047 0-2.828l-12.728-12.728c-0.781-0.781-2.047-0.781-2.828 0s-0.781 2.047 0 2.828l11.314 11.314-11.314 11.314c-0.781 0.781-0.781 2.047 0 2.828s2.047 0.781 2.828 0l12.728-12.728zM0 18h80v-4h-80v4z"></path>
</symbol>
<symbol id="icon-close" viewBox="0 0 32 32">
<path d="M17.253 16l7.369-7.369c0.146-0.17 0.222-0.389 0.213-0.612s-0.101-0.436-0.26-0.594c-0.158-0.158-0.371-0.251-0.594-0.26s-0.443 0.067-0.613 0.213l-7.369 7.369-7.369-7.378c-0.167-0.167-0.394-0.261-0.631-0.261s-0.464 0.094-0.631 0.261c-0.167 0.167-0.261 0.394-0.261 0.631s0.094 0.464 0.261 0.631l7.378 7.369-7.378 7.369c-0.093 0.080-0.169 0.178-0.222 0.288s-0.083 0.23-0.088 0.353c-0.005 0.122 0.016 0.244 0.061 0.359s0.112 0.218 0.199 0.304 0.19 0.154 0.304 0.199c0.114 0.045 0.236 0.065 0.359 0.061s0.243-0.035 0.353-0.088 0.208-0.129 0.288-0.222l7.378-7.369 7.369 7.369c0.17 0.146 0.389 0.222 0.613 0.213s0.436-0.101 0.594-0.26c0.158-0.158 0.251-0.371 0.26-0.594s-0.067-0.442-0.213-0.613l-7.369-7.369z"></path>
</symbol>
<symbol id="icon-cow" viewBox="0 0 32 32">
<path d="M6.168 0.192c-0.261 0.225-1.006 1.781-1.274 2.63-0.319 1.052-0.427 1.841-0.384 2.931 0.058 1.556 0.449 2.735 1.31 3.968 0.224 0.323 0.405 0.601 0.405 0.624 0 0.015-0.138 0.030-0.311 0.030-0.746 0-2.143 0.248-3.214 0.571-1.701 0.511-2.7 1.405-2.7 2.405 0 0.353 0.319 0.954 0.659 1.262 0.659 0.594 2.1 1.157 3.649 1.428 0.536 0.098 2.128 0.263 2.483 0.271 0.065 0 0.087 0.346 0.087 1.48 0 0.977 0.036 1.736 0.109 2.202 0.261 1.668 1.071 3.434 2.143 4.682l0.369 0.428-0.246 0.398c-0.362 0.564-0.499 0.992-0.543 1.631-0.109 1.533 0.847 2.893 2.693 3.848 3.518 1.826 8.985 1.112 11.033-1.443 0.999-1.247 1.115-2.675 0.326-3.968l-0.246-0.398 0.442-0.534c0.825-0.992 1.361-1.984 1.767-3.239 0.34-1.067 0.471-2.097 0.471-3.727 0-0.744 0.022-1.36 0.058-1.36 0.333-0.008 1.933-0.18 2.44-0.271 1.557-0.271 2.968-0.827 3.649-1.428 0.34-0.308 0.659-0.909 0.659-1.262 0-1.112-1.129-2.014-3.229-2.555-0.688-0.18-1.984-0.398-2.613-0.436l-0.297-0.023 0.326-0.451c0.405-0.549 0.912-1.616 1.108-2.315 0.55-2.021 0.21-4.374-0.97-6.62-0.492-0.932-0.833-1.15-1.231-0.782-0.152 0.143-0.217 0.338-0.362 1.045-0.449 2.247-1.281 4.028-2.498 5.343l-0.536 0.586h-11.453l-0.478-0.518c-1.187-1.308-2.049-3.156-2.498-5.411-0.145-0.706-0.21-0.902-0.362-1.045-0.239-0.218-0.471-0.21-0.738 0.023zM7.095 4.649c0.384 0.842 0.862 1.631 1.426 2.36l0.449 0.579-0.471 0.353c-0.442 0.338-0.854 0.819-1.173 1.368l-0.138 0.248-0.348-0.473c-1.187-1.638-1.484-3.645-0.854-5.726 0.304-1.007 0.297-0.999 0.572-0.128 0.13 0.421 0.376 1.060 0.536 1.42zM25.94 3.063c0.297 0.894 0.413 1.608 0.413 2.532 0 1.368-0.362 2.525-1.122 3.562l-0.34 0.466-0.253-0.428c-0.297-0.526-0.804-1.075-1.267-1.39-0.195-0.128-0.347-0.255-0.347-0.271 0-0.023 0.137-0.195 0.311-0.383 0.804-0.894 1.665-2.502 2.092-3.885 0.13-0.428 0.261-0.782 0.282-0.782s0.13 0.263 0.232 0.579zM22.241 8.556c0.804 0.338 1.571 1.308 1.694 2.127 0.065 0.451 0.217 0.736 0.413 0.782 0.087 0.015 0.688 0.068 1.332 0.113 2.288 0.15 4.090 0.639 4.858 1.308 0.355 0.316 0.319 0.579-0.109 0.902-0.854 0.646-2.7 1.135-4.583 1.217-1.245 0.053-1.506 0.090-1.672 0.263-0.123 0.128-0.138 0.263-0.138 1.623 0 1.841-0.094 2.901-0.326 3.757-0.326 1.165-0.97 2.405-1.723 3.284l-0.311 0.361-0.644-0.383c-0.782-0.466-1.513-0.767-2.389-0.969-2.744-0.654-5.777-0.256-7.819 1.029l-0.471 0.301-0.297-0.353c-0.405-0.473-1.043-1.488-1.296-2.059-0.557-1.293-0.724-2.345-0.724-4.659 0-2.247 0.116-2.082-1.549-2.172-2.128-0.113-3.75-0.496-4.771-1.142-0.753-0.481-0.63-0.909 0.42-1.413 1.006-0.488 2.389-0.781 4.308-0.902 1.491-0.098 1.528-0.12 1.665-0.842 0.203-1.090 1.006-1.991 2.020-2.277 0.253-0.075 1.672-0.090 6.016-0.083l5.683 0.015 0.413 0.173zM18.172 24.112c1.774 0.436 3.099 1.247 3.671 2.254 0.137 0.233 0.195 0.473 0.224 0.842 0.029 0.458 0.007 0.571-0.166 0.947-0.804 1.706-3.757 2.833-6.762 2.578-3.613-0.301-5.987-2.315-5.053-4.291 0.507-1.067 2.223-2.089 4.033-2.39 0.297-0.045 0.594-0.098 0.652-0.113s0.71-0.015 1.448 0c1.006 0.023 1.491 0.068 1.955 0.173z"></path>
<path d="M10.99 12.321c-0.449 0.15-0.753 0.346-1.158 0.751-0.355 0.338-0.384 0.736-0.087 0.977 0.275 0.225 0.536 0.195 0.869-0.098 0.42-0.368 0.746-0.518 1.151-0.518 0.405-0.008 0.717 0.135 1.151 0.518 0.333 0.293 0.594 0.323 0.869 0.098 0.145-0.12 0.188-0.218 0.188-0.443 0-0.233-0.051-0.338-0.304-0.594-0.717-0.721-1.781-0.999-2.679-0.691z"></path>
<path d="M19.432 12.313c-0.463 0.173-1.057 0.564-1.296 0.857-0.232 0.286-0.239 0.609 0 0.849 0.239 0.256 0.529 0.241 0.876-0.045 0.854-0.706 1.491-0.729 2.281-0.075 0.203 0.173 0.434 0.308 0.507 0.308 0.355 0 0.644-0.316 0.644-0.691 0-0.24-0.601-0.797-1.144-1.060-0.601-0.293-1.318-0.346-1.868-0.143z"></path>
<path d="M12.040 26.224c-0.21 0.203-0.282 0.496-0.174 0.729 0.080 0.188 0.203 0.263 0.702 0.398 0.224 0.060 0.319 0.135 0.398 0.323 0.101 0.248 0.109 0.248 0.666 0.27l0.557 0.023v-0.21c-0.007-0.301-0.174-0.736-0.391-1.037-0.253-0.346-0.695-0.571-1.195-0.616-0.34-0.030-0.427-0.015-0.565 0.12z"></path>
<path d="M18.954 26.171c-0.362 0.098-0.883 0.586-1.028 0.969-0.065 0.173-0.13 0.481-0.137 0.684-0.015 0.323 0.014 0.398 0.188 0.556 0.427 0.376 0.992 0.083 0.992-0.518 0-0.293 0.217-0.496 0.601-0.571 0.405-0.075 0.55-0.24 0.557-0.624 0-0.504-0.449-0.699-1.173-0.496z"></path>
</symbol>
<symbol id="icon-hamburger" viewBox="0 0 32 32">
<path d="M26.733 14.667h-21.467c-0.7 0-1.267 0.567-1.267 1.267v0.133c0 0.7 0.567 1.267 1.267 1.267h21.467c0.7 0 1.267-0.567 1.267-1.267v-0.133c0-0.7-0.567-1.267-1.267-1.267z"></path>
<path d="M26.733 21.333h-21.467c-0.7 0-1.267 0.567-1.267 1.267v0.133c0 0.7 0.567 1.267 1.267 1.267h21.467c0.7 0 1.267-0.567 1.267-1.267v-0.133c0-0.7-0.567-1.267-1.267-1.267z"></path>
<path d="M26.733 8h-21.467c-0.7 0-1.267 0.567-1.267 1.267v0.133c0 0.7 0.567 1.267 1.267 1.267h21.467c0.7 0 1.267-0.567 1.267-1.267v-0.133c0-0.7-0.567-1.267-1.267-1.267z"></path>
</symbol>
<symbol id="icon-facebook" viewBox="0 0 32 32">
<path d="M20.446 15.982h-2.61v9.619h-3.955v-9.619h-1.881v-3.38h1.881v-2.187c0-1.564 0.739-4.014 3.99-4.014l2.929 0.012v3.281h-2.125c-0.349 0-0.839 0.175-0.839 0.921v1.989h2.955l-0.346 3.377z"></path>
</symbol>
<symbol id="icon-github" viewBox="0 0 32 32">
<path d="M16 6.588c-5.169 0-9.412 4.242-9.412 9.412 0 4.411 3.095 8.419 7.206 9.412v-3.114c-0.407 0.089-0.782 0.092-1.197-0.030-0.556-0.164-1.008-0.535-1.344-1.1-0.214-0.361-0.593-0.752-0.988-0.723l-0.097-1.099c0.855-0.073 1.595 0.521 2.034 1.259 0.195 0.328 0.419 0.52 0.708 0.605 0.278 0.082 0.578 0.043 0.926-0.080 0.088-0.698 0.407-0.959 0.648-1.326v-0.001c-2.451-0.366-3.428-1.666-3.816-2.693-0.514-1.363-0.238-3.066 0.671-4.142 0.018-0.021 0.050-0.076 0.037-0.114-0.417-1.258 0.091-2.299 0.11-2.41 0.481 0.142 0.559-0.143 2.089 0.786l0.264 0.159c0.111 0.066 0.076 0.028 0.186 0.020 0.639-0.173 1.312-0.269 1.975-0.278 0.668 0.009 1.337 0.104 2.002 0.285l0.086 0.009c-0.007-0.001 0.023-0.005 0.075-0.036 1.911-1.157 1.842-0.779 2.355-0.946 0.019 0.111 0.519 1.169 0.107 2.411-0.056 0.171 1.657 1.739 0.708 4.256-0.388 1.027-1.365 2.328-3.816 2.693v0.001c0.314 0.479 0.692 0.734 0.69 1.722v3.887c4.111-0.993 7.206-5 7.206-9.412 0-5.169-4.242-9.412-9.412-9.412v0z"></path>
</symbol>
<symbol id="icon-ice-cream" viewBox="0 0 32 32">
<path d="M16.108 0.107c0.080 0.214 0.241 1.252 0.241 1.573 0 0.797-0.295 1.54-0.837 2.122-0.449 0.482-0.897 0.75-1.975 1.185-1.198 0.489-1.694 0.783-2.256 1.339-0.569 0.569-0.904 1.192-1.024 1.921-0.134 0.797 0 1.359 0.408 1.68l0.208 0.161-0.328 0.208c-0.663 0.435-1.868 1.459-2.075 1.774-0.402 0.603-0.361 1.165 0.094 1.392l0.214 0.107-0.241 0.228c-0.361 0.341-0.435 0.576-0.382 1.192 0.033 0.408 0.020 0.629-0.074 0.964-0.114 0.435-0.114 0.442 0.033 0.75 0.147 0.301 0.562 0.683 0.937 0.843 0.181 0.080 0.187 0.107 0.228 0.723 0.020 0.355 0.053 1.486 0.080 2.517 0.020 1.031 0.067 1.975 0.107 2.089 0.033 0.121 0.161 0.281 0.274 0.361 0.388 0.268 0.656 0.556 0.83 0.89 0.194 0.382 0.408 1.319 1.058 4.559l0.455 2.276 0.281 0.268c0.536 0.529 1.56 0.77 3.247 0.77 1.694 0 2.705-0.234 3.24-0.763l0.288-0.274 0.415-2.109c0.917-4.613 0.997-4.867 1.714-5.436 0.221-0.181 0.435-0.402 0.475-0.502 0.047-0.114 0.094-0.991 0.127-2.316 0.027-1.178 0.067-2.343 0.094-2.591l0.040-0.449 0.435-0.328c0.549-0.422 0.763-0.803 0.763-1.393-0.007-0.696-0.462-1.459-1.292-2.142l-0.395-0.321 0.194-0.274c0.81-1.118 0.301-2.664-1.205-3.695l-0.455-0.315 0.167-0.174c0.743-0.797 0.864-3.173 0.241-4.827-0.375-0.984-1.232-2.055-2.283-2.845-0.515-0.388-1.935-1.245-2.062-1.245-0.027 0-0.027 0.047-0.007 0.107zM18.036 2.443c0.355 0.348 0.783 0.823 0.951 1.064 0.997 1.392 1.252 3.14 0.649 4.425-0.241 0.522-0.964 1.299-1.633 1.761-1.024 0.71-3.327 1.901-4.934 2.557-2.584 1.051-4.084 1.252-4.258 0.562-0.067-0.261 0.127-0.469 0.951-1.018 0.743-0.509 4.077-2.986 4.137-3.086 0.020-0.027-0.321 0.127-0.75 0.341-1.453 0.736-2.142 0.596-2.109-0.428 0.020-0.743 0.556-1.587 1.299-2.069 0.187-0.12 0.77-0.388 1.305-0.603 1.761-0.71 2.296-1.071 2.892-1.962 0.355-0.529 0.743-1.506 0.77-1.921 0.007-0.147 0.034-0.261 0.054-0.261s0.321 0.288 0.676 0.636zM19.864 10.049c0.489 0.274 0.997 0.743 1.218 1.111 0.388 0.663 0.187 1.325-0.649 2.169-0.91 0.924-2.464 1.808-4.171 2.37-1.573 0.515-3.079 0.756-5.235 0.83l-1.339 0.047 0.87 0.054c1.125 0.074 3.3 0.007 4.144-0.127 2.243-0.355 4.151-1.064 5.516-2.042 0.308-0.221 0.629-0.402 0.716-0.402 0.221 0 1.185 0.924 1.379 1.312 0.107 0.221 0.134 0.382 0.114 0.596-0.1 0.89-1.185 1.366-3.802 1.68-3.2 0.382-7.384 0.007-9.172-0.817-0.844-0.388-0.984-0.609-0.77-1.198 0.067-0.187 0.080-0.408 0.054-0.723-0.033-0.415-0.027-0.469 0.12-0.623 0.335-0.361 0.897-0.569 2.959-1.091 0.723-0.187 1.707-0.482 2.176-0.656 1.138-0.415 3.274-1.493 4.264-2.156 0.93-0.616 1.064-0.643 1.607-0.335zM10.974 18.243c1.406 0.408 2.651 0.529 4.967 0.482 1.741-0.034 2.812-0.141 4.358-0.415 0.315-0.053 0.589-0.1 0.623-0.1 0.074 0 0.053 2.571-0.027 3.247-0.087 0.716-0.281 1.272-0.489 1.406-0.214 0.141-1.285 0.288-2.718 0.368-2.939 0.161-5.958 0-6.895-0.375-0.509-0.207-0.562-0.475-0.569-2.959 0-1.654 0.013-1.881 0.1-1.848 0.053 0.020 0.348 0.107 0.649 0.194zM12.56 23.933c0.482 0.060 1.004 0.121 1.165 0.141l0.288 0.034-0.254 0.281c-0.328 0.355-0.83 1.064-1.011 1.426-0.207 0.415-0.274 0.442-0.582 0.274l-0.261-0.147-0.147-0.91c-0.080-0.495-0.167-0.971-0.187-1.051-0.060-0.174-0.12-0.174 0.991-0.047zM19.697 23.859c0 0.013-0.033 0.187-0.067 0.382-0.040 0.201-0.208 1.292-0.375 2.43-0.341 2.377-0.569 3.495-0.777 3.869-0.288 0.502-0.977 0.797-2.095 0.89-0.435 0.034-1.747-0.053-1.821-0.12-0.053-0.060 1.098-1.486 1.279-1.58 0.167-0.094 0.214-0.080 0.783 0.214 0.663 0.348 0.997 0.402 0.997 0.181s-0.174-0.435-0.602-0.73c-0.395-0.281-0.536-0.442-0.536-0.629 0-0.053 0.194-0.355 0.428-0.669s0.576-0.817 0.75-1.118l0.328-0.542 0.301 0.040c0.609 0.087 0.77 0.080 0.75-0.053-0.013-0.067-0.127-0.261-0.254-0.422-0.127-0.167-0.228-0.335-0.228-0.368 0-0.127 0.623-1.299 0.823-1.546 0.174-0.214 0.315-0.321 0.315-0.228zM15.513 24.395c0.335 0.221 1.593 1.312 1.674 1.446 0.034 0.060-1.259 2.082-1.513 2.37-0.027 0.034-0.167-0.033-0.308-0.141-0.141-0.114-0.663-0.475-1.165-0.803l-0.904-0.596 0.542-0.917c0.964-1.613 0.944-1.587 1.151-1.587 0.107 0 0.341 0.1 0.522 0.228zM18.050 24.636c-0.234 0.288-0.428 0.469-0.509 0.469-0.174 0-0.455-0.154-0.93-0.502l-0.395-0.288 0.79-0.047c0.428-0.020 0.844-0.047 0.917-0.060 0.536-0.087 0.536-0.080 0.127 0.428zM12.989 27.856c0.616 0.241 1.66 0.81 1.962 1.064 0.214 0.174 0.214 0.187 0.127 0.402-0.054 0.121-0.234 0.442-0.415 0.716-0.174 0.268-0.375 0.602-0.449 0.743-0.214 0.415-0.281 0.449-0.723 0.328-0.475-0.141-0.73-0.382-0.864-0.817-0.181-0.609-0.469-2.33-0.435-2.598 0.013-0.1 0.295-0.040 0.797 0.161z"></path>
</symbol>
<symbol id="icon-logo" viewBox="0 0 30 32">
<path d="M15.226 17.082c1.415-3.784-1.515-5.856-3.457-7.217-0.371-0.278-0.743-0.538-1.043-0.776-0.537-0.447-0.933-1.037-1.141-1.699s-0.217-1.37-0.029-2.037c0.019-0.070 0.019-0.144-0.001-0.213s-0.060-0.132-0.114-0.181c-0.054-0.049-0.121-0.083-0.193-0.097s-0.147-0.009-0.216 0.016c-0.654 0.255-1.262 0.612-1.801 1.058-0.518 0.393-0.937 0.898-1.226 1.476s-0.44 1.213-0.441 1.858c-0.366 0.285-0.69 0.618-0.962 0.992-0.499 0.672-0.75 1.492-0.709 2.324-0.595 0.538-1.038 1.22-1.286 1.977s-0.292 1.566-0.129 2.345c-0.237 0.141-0.42 0.355-0.521 0.608s-0.116 0.533-0.041 0.795c0.075 0.262 0.235 0.493 0.456 0.657s0.49 0.251 0.767 0.25h0.026v2.152c0 0.218 0.088 0.428 0.245 0.582s0.369 0.241 0.591 0.241h0.65l1.058 9.040c0.022 0.201 0.119 0.387 0.272 0.523s0.351 0.21 0.556 0.209h4.404c0.206-0 0.404-0.075 0.557-0.21s0.251-0.321 0.275-0.522l1.058-9.040h0.65c0.222 0 0.434-0.087 0.591-0.241s0.245-0.364 0.245-0.582v-2.152h0.026c0.336 0 0.658-0.131 0.895-0.366s0.371-0.551 0.371-0.883c0.002-0.165-0.030-0.329-0.094-0.482s-0.158-0.291-0.277-0.408l-0.011 0.004zM5.695 10.216c0.535 1.98 2.599 2.76 4.482 3.455 0.051 0.031 0.107 0.050 0.166 0.057s0.119 0 0.175-0.018c0.056-0.019 0.108-0.049 0.151-0.090s0.076-0.090 0.098-0.145c0.021-0.055 0.030-0.113 0.026-0.172s-0.021-0.115-0.050-0.166c-0.029-0.051-0.069-0.095-0.117-0.129s-0.104-0.057-0.162-0.068c-2.027-0.758-3.939-1.464-4.084-3.488-0.034-0.556 0.072-1.112 0.308-1.619s0.596-0.947 1.047-1.284c0.282-0.232 0.586-0.437 0.906-0.615-0.021 0.253-0.021 0.508 0 0.761 0.043 0.58 0.204 1.146 0.473 1.663s0.641 0.976 1.094 1.349c0.308 0.26 0.691 0.527 1.114 0.813 0.976 0.692 2.087 1.464 2.792 2.511 0.376 0.537 0.611 1.158 0.681 1.807s-0.024 1.305-0.277 1.908h-1.641c-3.383 0-7.27-0.922-8.039-3.506-0.152-0.532-0.151-1.095 0.004-1.626s0.457-1.009 0.873-1.379l-0.019-0.018zM8.74 22.693l1.24 1.222-1.24 1.222-1.24-1.23 1.24-1.215zM11.584 25.903l-1.025 1.010-1.24-1.222 1.24-1.219 1.077 1.058-0.052 0.373zM8.74 28.706l-1.24-1.222 1.24-1.222 1.24 1.222-1.24 1.222zM8.172 25.698l-1.24 1.222-1.032-1.017-0.045-0.366 1.077-1.058 1.24 1.219zM6.36 27.484l-0.249 0.245-0.063-0.556 0.312 0.311zM6.23 28.735l0.702-0.692 1.363 1.354c0.007 0.027 0.016 0.054 0.026 0.081h-2.005l-0.085-0.743zM10.552 28.044l0.702 0.692-0.085 0.732h-2.061l1.444-1.424zM11.369 27.729l-0.249-0.245 0.316-0.311-0.067 0.556zM11.74 24.53l-0.62-0.622 0.787-0.776-0.167 1.398zM10.548 23.352l-1.177-1.157h2.354l-1.177 1.157zM6.928 23.352l-1.177-1.157h2.354l-1.177 1.157zM10.938 31.169h-4.4c-0.007-0.001-0.013-0.004-0.018-0.008s-0.008-0.011-0.008-0.017l-0.104-0.878h4.663l-0.1 0.878c-0.001 0.007-0.004 0.014-0.010 0.018s-0.012 0.007-0.020 0.007h-0.004zM14.343 18.418h-1.292c-0.056-0.005-0.113 0.001-0.166 0.019s-0.103 0.046-0.145 0.083c-0.042 0.037-0.075 0.083-0.098 0.134s-0.035 0.106-0.035 0.161c0 0.056 0.012 0.111 0.035 0.161s0.056 0.096 0.098 0.134c0.042 0.037 0.091 0.066 0.145 0.083s0.11 0.024 0.166 0.019h0.46v2.152c-0.001 0.007-0.004 0.014-0.010 0.018s-0.012 0.007-0.020 0.007h-9.494c-0.007 0-0.014-0.003-0.020-0.007s-0.009-0.011-0.010-0.018v-2.152h7.355c0.1-0.009 0.193-0.055 0.261-0.129s0.105-0.169 0.105-0.268-0.037-0.195-0.105-0.268c-0.068-0.073-0.161-0.119-0.261-0.129h-8.168c-0.064 0.006-0.128-0.002-0.188-0.022s-0.116-0.053-0.163-0.095c-0.047-0.043-0.085-0.094-0.111-0.152s-0.039-0.12-0.039-0.183c0-0.063 0.013-0.125 0.039-0.183s0.063-0.109 0.111-0.152c0.047-0.043 0.103-0.075 0.163-0.095s0.125-0.028 0.188-0.022h0.843c0.1-0.009 0.193-0.055 0.261-0.129s0.105-0.169 0.105-0.268-0.037-0.195-0.105-0.268c-0.068-0.073-0.161-0.119-0.261-0.129h-0.743c-0.106-0.557-0.089-1.13 0.051-1.68s0.399-1.063 0.759-1.505c0.26 0.798 0.928 1.889 2.599 2.756 1.571 0.809 3.65 1.222 6.178 1.222h1.485c0.064-0.006 0.128 0.002 0.188 0.022s0.116 0.053 0.163 0.095c0.047 0.043 0.085 0.094 0.111 0.152s0.039 0.12 0.039 0.183c0 0.063-0.013 0.125-0.039 0.183s-0.063 0.109-0.111 0.152c-0.047 0.043-0.103 0.075-0.163 0.095s-0.125 0.028-0.188 0.022h0.026z"></path>
<path d="M16.964 29.152l-0.292 0.449 0.006 0.004 0.287-0.453zM20.113 29.303l0.535-0.012-0.014-0.62-0.611 0.104 0.090 0.528zM20.15 30.951l0.136 0.518 0.409-0.108-0.009-0.422-0.535 0.012zM16.017 31.030l0.12-0.522-0.003-0.001-0.117 0.523zM13.977 30.119l0.347-0.408-0.001-0.001-0.346 0.409zM13.24 28.446l0.536 0.003v-0.003h-0.536zM13.496 27.274l-0.481-0.236-0 0.001 0.481 0.236zM15.139 25.872l0.19 0.501 0.002-0.001-0.192-0.5zM20.401 25.736l0.534 0.042 0.035-0.452-0.44-0.109-0.129 0.52zM20.27 27.415l-0.1 0.526 0.587 0.111 0.046-0.596-0.534-0.042zM18.842 26.728c-0.804 0-1.48 0.086-1.973 0.303-0.253 0.111-0.483 0.268-0.651 0.489-0.173 0.228-0.255 0.494-0.255 0.774h1.071c0-0.063 0.015-0.098 0.038-0.127 0.028-0.037 0.090-0.095 0.228-0.155 0.288-0.126 0.784-0.212 1.542-0.212v-1.071zM15.963 28.294c0 0.551 0.247 1.006 0.709 1.307l0.585-0.897c-0.159-0.104-0.222-0.221-0.222-0.409h-1.071zM16.678 29.604c0.438 0.277 1.015 0.381 1.662 0.381v-1.071c-0.559 0-0.899-0.095-1.089-0.215l-0.573 0.905zM18.34 29.986c0.636 0 1.257-0.051 1.863-0.154l-0.179-1.056c-0.545 0.092-1.106 0.139-1.684 0.139v1.071zM19.578 29.315l0.037 1.648 1.071-0.024-0.037-1.648-1.071 0.024zM20.013 30.433c-0.612 0.161-1.288 0.244-2.029 0.244v1.071c0.821 0 1.589-0.092 2.302-0.279l-0.273-1.036zM17.984 30.677c-0.757 0-1.369-0.059-1.847-0.169l-0.24 1.044c0.582 0.134 1.281 0.197 2.087 0.197v-1.071zM16.134 30.507c-0.511-0.114-0.88-0.236-1.127-0.356l-0.47 0.963c0.354 0.173 0.814 0.316 1.363 0.439l0.234-1.045zM15.008 30.151c-0.264-0.129-0.491-0.276-0.684-0.44l-0.693 0.817c0.267 0.227 0.571 0.421 0.907 0.585l0.47-0.963zM14.323 29.71c-0.364-0.308-0.55-0.709-0.548-1.262l-1.071-0.005c-0.004 0.842 0.301 1.556 0.927 2.086l0.691-0.818zM13.776 28.446c0-0.36 0.071-0.669 0.202-0.936l-0.962-0.471c-0.211 0.43-0.311 0.903-0.311 1.407h1.071zM13.977 27.51c0.244-0.495 0.674-0.88 1.352-1.137l-0.38-1.002c-0.884 0.336-1.549 0.885-1.933 1.666l0.961 0.473zM15.331 26.372c0.713-0.274 1.508-0.414 2.392-0.414v-1.071c-0.999 0-1.926 0.159-2.776 0.485l0.384 1zM17.723 25.958c0.902 0 1.751 0.1 2.549 0.298l0.258-1.040c-0.889-0.221-1.826-0.33-2.807-0.33v1.071zM19.867 25.695l-0.131 1.679 1.068 0.083 0.131-1.679-1.068-0.083zM20.37 26.889c-0.557-0.106-1.068-0.161-1.528-0.161v1.071c0.377 0 0.818 0.046 1.328 0.142l0.2-1.052zM25.596 27.745l-0.003 0.536 0.544 0.003-0.006-0.544-0.536 0.006zM25.366 27.049l-0.364 0.393 0.005 0.004 0.36-0.397zM24.032 27.101l0.371 0.386 0.004-0.004-0.375-0.383zM23.708 27.734l-0.529-0.087-0.102 0.619 0.627 0.003 0.003-0.536zM27.646 30.59l0.324 0.427 0.193-0.146 0.018-0.241-0.534-0.040zM26.49 31.019l-0.115-0.523-0.003 0.001 0.118 0.522zM22.473 30.873l-0.183 0.504 0.004 0.002 0.178-0.505zM21.558 30.386l-0.332 0.42 0.003 0.003 0.003 0.003 0.326-0.425zM20.946 29.617l-0.48 0.237 0.001 0.002 0.479-0.24zM21.573 26.369l0.356 0.4 0-0-0.356-0.4zM26.469 25.788l0.214-0.491-0.005-0.002-0.209 0.493zM27.699 26.918l-0.482 0.234 0.001 0.003 0.48-0.237zM27.908 27.855l0.534 0.039 0.001-0.019v-0.019h-0.536zM27.845 28.718l-0.003 0.536 0.501 0.002 0.036-0.499-0.534-0.039zM23.603 28.697l0.003-0.536-0.699-0.003 0.178 0.676 0.518-0.137zM24.21 29.445l-0.264 0.466 0.002 0.001 0.261-0.468zM27.463 29.262v-0.536h-0.107l-0.099 0.041 0.206 0.494zM27.746 29.262l0.534 0.040 0.043-0.576h-0.577v0.536zM26.131 27.739c-0.004-0.387-0.093-0.803-0.406-1.087l-0.72 0.794c-0.006-0.006 0.006 0.001 0.021 0.047 0.016 0.049 0.032 0.131 0.033 0.257l1.071-0.011zM25.73 26.657c-0.281-0.261-0.65-0.347-1.013-0.347v1.071c0.209 0 0.272 0.050 0.284 0.061l0.729-0.785zM24.717 26.309c-0.399 0-0.77 0.125-1.060 0.409l0.75 0.765c0.058-0.057 0.144-0.103 0.31-0.103v-1.071zM23.661 26.715c-0.264 0.253-0.423 0.572-0.482 0.932l1.057 0.174c0.024-0.149 0.082-0.252 0.167-0.333l-0.742-0.773zM23.705 28.27l1.888 0.011 0.006-1.071-1.888-0.011-0.006 1.071zM27.323 30.163c-0.117 0.089-0.404 0.213-0.948 0.333l0.23 1.046c0.565-0.124 1.049-0.286 1.364-0.525l-0.647-0.854zM26.372 30.497c-0.519 0.117-1.018 0.175-1.498 0.175v1.071c0.566 0 1.145-0.068 1.735-0.201l-0.237-1.045zM24.874 30.672c-0.505 0-0.92-0.024-1.252-0.068l-0.143 1.062c0.394 0.053 0.86 0.078 1.395 0.078v-1.071zM23.622 30.603c-0.325-0.044-0.649-0.122-0.971-0.236l-0.357 1.010c0.389 0.137 0.784 0.233 1.184 0.287l0.143-1.062zM22.656 30.369c-0.313-0.114-0.568-0.251-0.772-0.408l-0.652 0.85c0.305 0.234 0.66 0.421 1.059 0.565l0.365-1.007zM21.89 29.966c-0.184-0.146-0.34-0.338-0.465-0.588l-0.958 0.479c0.189 0.377 0.44 0.697 0.759 0.949l0.665-0.84zM21.426 29.38c-0.113-0.228-0.18-0.521-0.18-0.898h-1.071c0 0.502 0.090 0.966 0.291 1.372l0.96-0.475zM21.246 28.482c0-0.377 0.068-0.71 0.196-1.006l-0.983-0.427c-0.192 0.443-0.285 0.923-0.285 1.432h1.071zM21.442 27.477c0.135-0.311 0.3-0.541 0.487-0.708l-0.712-0.8c-0.322 0.287-0.572 0.653-0.758 1.081l0.983 0.427zM21.93 26.769c0.576-0.513 1.454-0.811 2.719-0.811v-1.071c-1.42 0-2.592 0.334-3.432 1.083l0.713 0.8zM24.649 25.958c0.568 0 1.103 0.108 1.611 0.324l0.418-0.986c-0.643-0.273-1.321-0.409-2.029-0.409v1.071zM26.255 26.279c0.474 0.207 0.78 0.5 0.962 0.873l0.963-0.468c-0.307-0.631-0.82-1.091-1.497-1.387l-0.428 0.982zM27.218 27.155c0.1 0.203 0.154 0.433 0.154 0.699h1.071c0-0.417-0.086-0.811-0.265-1.173l-0.96 0.474zM27.374 27.816l-0.063 0.863 1.068 0.078 0.063-0.863-1.068-0.078zM27.848 28.182l-4.242-0.021-0.005 1.071 4.242 0.021 0.005-1.071zM23.085 28.833c0.125 0.475 0.431 0.835 0.861 1.078l0.527-0.933c-0.212-0.12-0.31-0.258-0.352-0.418l-1.036 0.273zM23.948 29.912c0.434 0.243 0.978 0.34 1.585 0.34v-1.071c-0.509 0-0.848-0.084-1.062-0.204l-0.523 0.935zM25.533 30.252c0.651 0 1.367-0.176 2.136-0.496l-0.412-0.989c-0.689 0.287-1.26 0.414-1.724 0.414v1.071zM27.463 29.797h0.282v-1.071h-0.282v1.071zM27.212 29.222l-0.099 1.329 1.068 0.080 0.099-1.329-1.068-0.080z"></path>
</symbol>
<symbol id="icon-telegram" viewBox="0 0 32 32">
<path d="M12.869 18.375l-0.318 4.169c0.454 0 0.651-0.182 0.887-0.401l2.13-1.9 4.415 3.017c0.81 0.421 1.38 0.199 1.598-0.695l2.898-12.672 0.001-0.001c0.257-1.117-0.433-1.554-1.222-1.28l-17.032 6.086c-1.162 0.421-1.145 1.026-0.198 1.3l4.354 1.264 10.115-5.907c0.476-0.294 0.909-0.131 0.553 0.163l-8.182 6.857z"></path>
</symbol>
<symbol id="icon-weight" viewBox="0 0 32 32">
<path d="M14.177 0.547c-3.974 0.589-7.247 2.796-8.451 5.685-0.384 0.913-0.488 1.473-0.488 2.573 0.007 0.812 0.037 1.114 0.162 1.553 0.259 0.863 0.443 1.301 0.827 1.919l0.355 0.575-0.399 0.489c-3.154 3.924-3.502 9.444-0.872 13.793 0.982 1.632 2.585 3.234 4.152 4.169l0.465 0.273 12.743-0.108 0.303-0.165c1.056-0.597 2.549-1.926 3.383-3.004 1.256-1.639 2.076-3.551 2.423-5.621 0.118-0.74 0.118-2.932-0.007-3.63-0.377-2.149-1.182-3.989-2.453-5.621-0.244-0.309-0.436-0.568-0.436-0.589 0-0.014 0.133-0.237 0.288-0.489 0.362-0.575 0.687-1.315 0.864-1.962 0.199-0.719 0.199-2.516 0-3.234-0.709-2.552-2.837-4.679-5.843-5.851-0.842-0.331-2.283-0.683-3.213-0.798-0.864-0.101-2.999-0.079-3.804 0.043zM18.676 1.718c3.945 0.769 6.833 3.184 7.365 6.16 0.118 0.668 0.044 1.804-0.155 2.437-0.199 0.618-0.569 1.344-1.005 1.962-0.177 0.252-0.325 0.539-0.325 0.633s0.155 0.338 0.377 0.582c1.847 2.048 2.822 4.614 2.822 7.389-0.007 3.155-1.219 5.922-3.553 8.093-0.399 0.374-0.968 0.841-1.271 1.042l-0.554 0.374-12.211 0.050-0.473-0.302c-1.714-1.114-3.258-2.954-4.115-4.909-1.079-2.472-1.189-5.34-0.31-7.913 0.465-1.337 1.086-2.429 2.031-3.579 0.384-0.46 0.561-0.733 0.561-0.863 0-0.108-0.192-0.46-0.443-0.827-0.886-1.287-1.248-2.717-1.034-4.068 0.222-1.366 0.842-2.487 1.987-3.601 1.492-1.445 3.575-2.401 6.020-2.76 1.012-0.151 3.25-0.093 4.285 0.101z"></path>
<path d="M14.51 2.983c-3.029 0.496-5.4 2.178-6.176 4.384-0.177 0.496-0.207 0.69-0.207 1.402s0.030 0.906 0.207 1.402c0.111 0.316 0.318 0.755 0.458 0.978 0.384 0.618 0.554 0.64 1.315 0.18 1.138-0.697 2.445-1.208 3.804-1.488 0.916-0.187 2.674-0.259 3.671-0.144 1.559 0.18 3.25 0.74 4.602 1.538 0.384 0.223 0.776 0.41 0.872 0.41 0.561 0 1.278-1.617 1.278-2.875 0-2.796-2.674-5.189-6.464-5.786-0.805-0.129-2.585-0.129-3.361 0zM18.166 4.133c1.271 0.273 2.438 0.791 3.317 1.473 1.182 0.913 1.817 2.185 1.714 3.414-0.037 0.489-0.222 1.15-0.332 1.222-0.029 0.014-0.443-0.158-0.916-0.388-0.983-0.474-2.098-0.855-3.228-1.1-0.687-0.144-0.975-0.165-2.512-0.158-1.514 0-1.832 0.022-2.489 0.158-1.138 0.244-2.024 0.546-3.117 1.064-1.101 0.525-1.042 0.532-1.241-0.115-0.258-0.841-0.096-1.955 0.406-2.796 0.266-0.446 0.997-1.186 1.529-1.553 1.012-0.697 1.899-1.013 3.804-1.358 0.391-0.072 2.563 0.029 3.066 0.137z"></path>
<path d="M16.962 13.405c-0.207 0.259-0.207 0.503 0.007 0.712 0.14 0.137 0.281 0.173 0.79 0.208 0.99 0.072 1.935 0.359 2.785 0.848 0.606 0.359 1.529 1.229 1.943 1.854 0.613 0.898 1.034 2.185 1.034 3.134 0 0.331 0.029 0.431 0.185 0.575 0.236 0.237 0.547 0.237 0.776 0 0.163-0.165 0.17-0.208 0.125-0.913-0.207-3.479-3.184-6.383-6.744-6.577l-0.739-0.043-0.163 0.201z"></path>
</symbol>
</defs>
</svg>
